<svg id="Capa_1" enable-background="new 0 0 512 512" height="512" viewBox="0 0 512 512" width="512" xmlns="http://www.w3.org/2000/svg" xmlns:xlink="http://www.w3.org/1999/xlink"><linearGradient id="SVGID_1_" gradientUnits="userSpaceOnUse" x1="271" x2="271" y1="512" y2="0"><stop offset="0" stop-color="#00b59c"/><stop offset="1" stop-color="#9cffac"/></linearGradient><linearGradient id="SVGID_2_" gradientUnits="userSpaceOnUse" x1="254.049" x2="254.049" y1="512" y2="30"><stop offset="0" stop-color="#c3ffe8"/><stop offset=".9973" stop-color="#f0fff4"/></linearGradient><g><g><g><path d="m317.14 55.562c5.537-6.167 5.01-15.645-1.143-21.182-24.756-22.163-56.719-34.38-90-34.38-74.443 0-135 60.557-135 135v362c0 8.291 6.709 15 15 15s15-6.709 15-15v-362c0-57.891 47.109-105 105-105 25.869 0 50.742 9.492 69.961 26.733 6.182 5.508 15.674 5.054 21.182-1.171zm-1.143 124.438c-8.291 0-15 6.709-15 15v60c0 8.291 6.709 15 15 15s15-6.709 15-15v-60c0-8.291-6.709-15-15-15zm0 120c-8.291 0-15 6.709-15 15v60c0 8.291 6.709 15 15 15s15-6.709 15-15v-60c0-8.291-6.709-15-15-15zm94.248-49.746-20.01-60c-2.637-7.866-11.074-12.07-18.984-9.478-7.852 2.622-12.1 11.104-9.492 18.97l20.01 60c2.622 7.812 11.082 12.112 18.984 9.478 7.851-2.622 12.099-11.104 9.492-18.97zm39.99 120-20.01-60c-2.637-7.866-11.074-12.114-18.984-9.478-7.852 2.622-12.1 11.104-9.492 18.97l20.01 60c2.622 7.812 11.082 12.112 18.984 9.478 7.852-2.622 12.1-11.104 9.492-18.97zm-189.492-189.478c-7.852-2.578-16.348 1.611-18.984 9.478l-20.01 60c-2.607 7.866 1.641 16.348 9.492 18.97 7.91 2.637 16.365-1.674 18.984-9.478l20.01-60c2.608-7.866-1.64-16.348-9.492-18.97zm-39.99 120c-7.852-2.622-16.348 1.626-18.984 9.478l-20.01 60c-2.607 7.866 1.641 16.348 9.492 18.97 7.91 2.637 16.365-1.674 18.984-9.478l20.01-60c2.607-7.866-1.641-16.348-9.492-18.97z" fill="url(#SVGID_1_)"/></g></g><g><g><path d="m432.1 120c-6.65 0-12.627-4.673-14.297-11.323-12.187-46.319-54.052-78.677-101.806-78.677-47.022 0-89.715 32.295-101.865 78.882-1.612 6.445-7.588 11.118-14.239 11.118-8.291 0-15 6.709-15 15s6.709 15 15 15h232.207c8.291 0 15-6.709 15-15s-6.709-15-15-15zm-296.103 362h-60c-8.291 0-15 6.709-15 15s6.709 15 15 15h60c8.291 0 15-6.709 15-15s-6.709-15-15-15z" fill="url(#SVGID_2_)"/></g></g></g></svg>