<svg id="Capa_1" enable-background="new 0 0 512 512" height="512" viewBox="0 0 512 512" width="512" xmlns="http://www.w3.org/2000/svg" xmlns:xlink="http://www.w3.org/1999/xlink"><linearGradient id="SVGID_1_" gradientUnits="userSpaceOnUse" x1="256" x2="256" y1="512" y2="0"><stop offset="0" stop-color="#a93aff"/><stop offset="1" stop-color="#ff81ff"/></linearGradient><linearGradient id="SVGID_2_" gradientUnits="userSpaceOnUse" x1="256" x2="256" y1="392" y2="120"><stop offset="0" stop-color="#ffbef9"/><stop offset="1" stop-color="#fff1ff"/></linearGradient><g><g><g><path d="m391 0h-90c-8.284 0-15 6.716-15 15v15c0 16.542-13.458 30-30 30s-30-13.458-30-30v-15c0-8.284-6.716-15-15-15h-90c-8.284 0-15 6.716-15 15v482c0 8.284 6.716 15 15 15h90c8.284 0 15-6.716 15-15v-15c0-16.542 13.458-30 30-30s30 13.458 30 30v15c0 8.284 6.716 15 15 15h90c8.284 0 15-6.716 15-15v-482c0-8.284-6.716-15-15-15z" fill="url(#SVGID_1_)"/></g></g><g><g><path d="m331 150c-8.271 0-15-6.729-15-15 0-8.284-6.716-15-15-15h-90c-8.284 0-15 6.716-15 15 0 8.271-6.729 15-15 15-8.284 0-15 6.716-15 15v182c0 8.284 6.716 15 15 15 8.271 0 15 6.729 15 15 0 8.284 6.716 15 15 15h90c8.284 0 15-6.716 15-15 0-8.271 6.729-15 15-15 8.284 0 15-6.716 15-15v-182c0-8.284-6.716-15-15-15z" fill="url(#SVGID_2_)"/></g></g></g></svg>