<svg id="Capa_1" enable-background="new 0 0 512 512" height="512" viewBox="0 0 512 512" width="512" xmlns="http://www.w3.org/2000/svg" xmlns:xlink="http://www.w3.org/1999/xlink"><linearGradient id="lg1"><stop offset="0" stop-color="#5558ff"/><stop offset="1" stop-color="#00c0ff"/></linearGradient><linearGradient id="SVGID_1_" gradientUnits="userSpaceOnUse" x1="256" x2="256" xlink:href="#lg1" y1="375" y2="15"/><linearGradient id="SVGID_2_" gradientUnits="userSpaceOnUse" x1="256" x2="256" y1="482" y2="0"><stop offset="0" stop-color="#addcff"/><stop offset=".5028" stop-color="#eaf6ff"/><stop offset="1" stop-color="#eaf6ff"/></linearGradient><linearGradient id="SVGID_3_" gradientUnits="userSpaceOnUse" x1="256" x2="256" xlink:href="#lg1" y1="512" y2="422"/><g><circle cx="256" cy="195" fill="url(#SVGID_1_)" r="180"/><g><g><path d="m196 452h-181c-8.284 0-15 6.716-15 15s6.716 15 15 15h181c8.284 0 15-6.716 15-15s-6.716-15-15-15zm301 0h-181c-8.284 0-15 6.716-15 15s6.716 15 15 15h181c8.284 0 15-6.716 15-15s-6.716-15-15-15zm-46-257c0-107.523-87.477-195-195-195s-195 87.477-195 195c0 102.477 79.458 186.744 180 194.429v47.571c0 8.284 6.716 15 15 15s15-6.716 15-15v-47.571c100.542-7.685 180-91.952 180-194.429zm-262.71-150.459c-3.276 5.088-6.399 10.577-9.347 16.472-16.219 32.439-25.875 74.234-27.643 118.987h-59.611c5.47-60.407 43.625-111.525 96.601-135.459zm-96.601 165.459h59.611c1.768 44.753 11.424 86.548 27.644 118.987 2.948 5.895 6.071 11.384 9.347 16.472-52.977-23.934-91.132-75.052-96.602-135.459zm149.311 146.266c-12.743-6.303-25.067-20.382-35.224-40.695-14.219-28.438-22.746-65.483-24.452-105.571h59.676zm0-176.266h-59.676c1.706-40.088 10.233-77.133 24.452-105.571 10.156-20.312 22.48-34.392 35.224-40.695zm179.311 0h-59.611c-1.768-44.753-11.424-86.548-27.644-118.987-2.948-5.895-6.071-11.384-9.347-16.472 52.977 23.934 91.132 75.052 96.602 135.459zm-149.311-146.266c12.743 6.303 25.067 20.382 35.224 40.695 14.219 28.438 22.746 65.483 24.452 105.571h-59.676zm0 322.532v-146.266h59.676c-1.706 40.088-10.233 77.133-24.452 105.571-10.157 20.312-22.481 34.392-35.224 40.695zm52.71-10.807c3.276-5.088 6.399-10.577 9.347-16.472 16.219-32.439 25.875-74.234 27.643-118.987h59.611c-5.47 60.407-43.625 111.525-96.601 135.459z" fill="url(#SVGID_2_)"/></g></g><path d="m316 512h-120c-8.284 0-15-6.716-15-15v-60c0-8.284 6.716-15 15-15h120c8.284 0 15 6.716 15 15v60c0 8.284-6.716 15-15 15z" fill="url(#SVGID_3_)"/></g></svg>