<svg id="Capa_1" enable-background="new 0 0 512 512" height="512" viewBox="0 0 512 512" width="512" xmlns="http://www.w3.org/2000/svg" xmlns:xlink="http://www.w3.org/1999/xlink"><linearGradient id="SVGID_1_" gradientUnits="userSpaceOnUse" x1="256" x2="256" y1="512" y2="376"><stop offset="0" stop-color="#ffe59a"/><stop offset="1" stop-color="#ffffd5"/></linearGradient><linearGradient id="SVGID_2_" gradientUnits="userSpaceOnUse" x1="256" x2="256" y1="440.702" y2="0"><stop offset="0" stop-color="#fd5900"/><stop offset="1" stop-color="#ffde00"/></linearGradient><g><g><g><path d="m256.034 376-75.034 30v31c0 41.4 33.6 75 75 75s75-33.6 75-75v-31z" fill="url(#SVGID_1_)"/></g></g><g><g><path d="m45 241h-30c-8.291 0-15 6.709-15 15s6.709 15 15 15h30c8.291 0 15-6.709 15-15s-6.709-15-15-15zm452 0h-30c-8.291 0-15 6.709-15 15s6.709 15 15 15h30c8.291 0 15-6.709 15-15s-6.709-15-15-15zm-400.111 152.886-21.211 21.211c-5.859 5.859-5.859 15.352 0 21.211 5.86 5.859 15.352 5.859 21.211 0l21.211-21.211c5.859-5.859 5.859-15.352 0-21.211s-15.352-5.86-21.211 0zm318.222-318.194-21.211 21.211c-5.859 5.859-5.859 15.352 0 21.211 5.86 5.859 15.352 5.859 21.211 0l21.211-21.211c5.859-5.859 5.859-15.352 0-21.211s-15.351-5.859-21.211 0zm-159.111-15.692c8.291 0 15-6.709 15-15v-30c0-8.291-6.709-15-15-15s-15 6.709-15 15v30c0 8.291 6.709 15 15 15zm159.111 333.886c-5.859-5.859-15.352-5.859-21.211 0s-5.859 15.352 0 21.211l21.211 21.211c5.86 5.859 15.352 5.859 21.211 0s5.859-15.352 0-21.211zm-318.222-275.772c5.86 5.859 15.352 5.859 21.211 0s5.859-15.352 0-21.211l-21.211-21.211c-5.859-5.859-15.352-5.859-21.211 0s-5.859 15.352 0 21.211zm253.311 6.186c-35.101-28.501-81.3-39.3-126.601-30-57.9 12.299-104.099 60-114.899 118.5-10.2 55.199 9.599 109.2 53.1 144.3 12.301 9.9 19.2 23.101 19.2 36.6v12.3h150v-12.301c0-13.499 6.899-26.699 19.2-36.6 35.4-28.8 55.8-71.099 55.8-116.099 0-45.301-20.4-87.899-55.8-116.7z" fill="url(#SVGID_2_)"/></g></g></g></svg>