<svg id="Capa_1" enable-background="new 0 0 512 512" height="512" viewBox="0 0 512 512" width="512" xmlns="http://www.w3.org/2000/svg" xmlns:xlink="http://www.w3.org/1999/xlink"><linearGradient id="SVGID_1_" gradientUnits="userSpaceOnUse" x1="256" x2="256" y1="510.5" y2="0"><stop offset="0" stop-color="#ffc2cc"/><stop offset="1" stop-color="#fff2f4"/></linearGradient><linearGradient id="SVGID_2_" gradientUnits="userSpaceOnUse" x1="256" x2="256" y1="512" y2="62"><stop offset="0" stop-color="#fd3a84"/><stop offset="1" stop-color="#ffa68d"/></linearGradient><g><g><g><path d="m478.9 339.2c-14.4-23.401-27.9-45.601-27.9-82.2 0-8.401-6.599-15-15-15s-15 6.599-15 15v-60c0 8.291 6.709 15 15 15s15-6.709 15-15v-182c0-8.291-6.709-15-15-15h-60c-8.291 0-15 6.709-15 15v78.201c0 5.376 2.871 10.327 7.529 13.008-16.142-9.302-34.306-14.209-52.529-14.209h-120c-18.223 0-36.387 4.907-52.529 14.209 4.658-2.681 7.529-7.632 7.529-13.008v-78.201c0-8.291-6.709-15-15-15h-60c-8.291 0-15 6.709-15 15v182c0 8.291 6.709 15 15 15s15-6.709 15-15v60c0-8.401-6.599-15-15-15s-15 6.599-15 15c0 36.599-13.5 58.799-27.9 82.2-15 24.6-33.1 52.5-33.1 97.8 0 49.2 34.9 68.399 61 73.5l30-13.5v-15h330v15l30 13.5c26.1-5.102 61-24.3 61-73.5 0-45.3-18.1-73.2-33.1-97.8zm-267.9-262.2c0-24.814 20.186-45 45-45s45 20.186 45 45c0 8.291 6.709 15 15 15s15-6.709 15-15c0-41.353-33.633-75-75-75s-75 33.647-75 75c0 8.291 6.709 15 15 15s15-6.709 15-15z" fill="url(#SVGID_1_)"/></g></g><g><g><path d="m383.5 80.3c-20.7-12.001-44.099-18.3-67.5-18.3h-120c-23.401 0-46.8 6.299-67.5 18.3-41.7 23.699-67.5 68.699-67.5 116.7v313.5c5.4.899 10.499 1.5 15 1.5h360c4.501 0 9.6-.601 15-1.5v-313.5c0-48.001-25.8-93.001-67.5-116.7zm7.5 356.7c0 8.284-6.716 15-15 15h-240c-8.284 0-15-6.716-15-15v-120c0-8.284 6.716-15 15-15h240c8.284 0 15 6.716 15 15zm-195-195c-8.401 0-15-6.601-15-15 0-8.401 6.599-15 15-15h120c8.284 0 15 6.716 15 15v30c0 8.399-6.599 15-15 15s-15-6.601-15-15v-15zm195 15c0 8.399-6.599 15-15 15s-15-6.601-15-15v-60c0-24.853-20.147-45-45-45h-120c-24.853 0-45 20.147-45 45v60c0 8.399-6.599 15-15 15s-15-6.601-15-15v-60c0-41.421 33.579-75 75-75h120c41.421 0 75 33.579 75 75z" fill="url(#SVGID_2_)"/></g></g></g></svg>