<svg id="Capa_1" enable-background="new 0 0 512 512" height="512" viewBox="0 0 512 512" width="512" xmlns="http://www.w3.org/2000/svg" xmlns:xlink="http://www.w3.org/1999/xlink"><linearGradient id="SVGID_1_" gradientUnits="userSpaceOnUse" x1="256" x2="256" y1="512" y2="0"><stop offset="0" stop-color="#5558ff"/><stop offset="1" stop-color="#00c0ff"/></linearGradient><linearGradient id="SVGID_2_" gradientUnits="userSpaceOnUse" x1="256" x2="256" y1="452" y2="60"><stop offset="0" stop-color="#addcff"/><stop offset=".5028" stop-color="#eaf6ff"/><stop offset="1" stop-color="#eaf6ff"/></linearGradient><g id="Smartphone_1_"><g><path d="m376 512h-240c-24.814 0-45-20.186-45-45v-422c0-24.814 20.186-45 45-45h240c24.814 0 45 20.186 45 45v422c0 24.814-20.186 45-45 45z" fill="url(#SVGID_1_)"/></g><g><g><path d="m346 60h-180c-8.291 0-15 6.709-15 15v302c0 8.291 6.709 15 15 15h180c8.291 0 15-6.709 15-15v-302c0-8.291-6.709-15-15-15zm-75 362h-30c-8.291 0-15 6.709-15 15s6.709 15 15 15h30c8.291 0 15-6.709 15-15s-6.709-15-15-15z" fill="url(#SVGID_2_)"/></g></g></g></svg>